<svg version="1.1" id="Layer_1" xmlns="http://www.w3.org/2000/svg" xmlns:xlink="http://www.w3.org/1999/xlink" x="0px" y="0px"
	 width="100%" viewBox="0 0 304 416" enable-background="new 0 0 304 416" xml:space="preserve">
<path fill="#004080" opacity="1.000000" stroke="none" 
	d="
M239.438797,201.802353 
	C237.708862,177.399002 228.131210,157.182297 210.612061,140.613785 
	C196.702057,127.458580 181.191162,116.619659 164.300858,107.722778 
	C148.794861,99.555069 132.622940,92.912888 116.014290,87.347137 
	C110.314240,85.436989 104.407082,84.585320 98.391151,84.201591 
	C87.545898,83.509804 79.477684,87.762627 73.566429,96.851799 
	C70.515709,101.542610 67.795959,106.551369 62.854401,111.331856 
	C43.075325,78.753784 23.125664,46.904961 10.568952,11.258260 
	C13.182387,9.302751 14.744824,10.746392 16.297535,11.446716 
	C62.156414,32.130623 107.974228,52.909668 154.438934,72.213104 
	C180.904495,83.208054 207.609818,93.561630 235.410690,100.775841 
	C237.862595,101.412094 239.501114,102.593681 240.670151,104.867592 
	C253.390488,129.610046 266.240295,154.288681 277.669220,179.667496 
	C280.519836,185.997513 279.830078,193.077087 281.756042,200.776810 
	C282.161835,191.328751 279.368011,183.274094 279.772095,174.794922 
	C283.919128,180.138718 287.045624,186.005661 286.358124,192.992325 
	C285.880127,197.850052 286.786652,202.074951 288.689240,206.501923 
	C294.814423,220.753738 299.168335,235.637238 303.541565,250.494354 
	C304.318298,253.133102 304.866119,256.020416 302.916992,258.891846 
	C298.478760,258.612946 295.232178,255.172180 290.931519,254.261887 
	C289.173920,255.000381 290.355896,257.500610 287.820129,258.630402 
	C283.640320,256.423553 278.663452,258.009979 273.714722,259.295746 
	C272.404846,255.907715 271.643738,252.826874 272.339050,250.000626 
	C273.401886,245.680588 271.300201,244.265945 267.912567,242.660629 
	C255.871262,236.954575 243.972122,230.947723 232.038162,225.016556 
	C229.974579,223.990967 228.003311,222.779556 225.839890,221.570419 
	C226.938339,217.301651 230.549362,215.355057 232.781006,212.389084 
	C235.229401,209.135025 239.221573,206.893860 239.438797,201.802353 
M282.381989,205.189148 
	C282.257874,212.634644 281.952698,220.083267 282.081055,227.524399 
	C282.152191,231.649765 281.683472,235.067642 277.411163,236.969025 
	C276.422699,237.408936 274.985718,238.324875 276.044037,240.333633 
	C279.189941,239.043777 282.489990,236.914230 285.581879,240.179565 
	C288.077759,242.815460 288.495239,246.445709 289.727173,250.306839 
	C290.079651,247.645523 289.930420,245.555725 289.029816,243.830811 
	C285.177460,236.452255 284.411713,228.512512 284.057373,220.391235 
	C283.841187,215.435974 283.973572,210.413498 282.381989,205.189148 
M238.040039,116.350403 
	C237.047089,114.390930 236.054153,112.431465 235.061203,110.471992 
	C235.643814,114.741150 237.574112,118.272507 240.416336,121.337128 
	C239.730789,119.880119 239.045242,118.423111 238.040039,116.350403 
z"/>
<path fill="#004080" opacity="1.000000" stroke="none" 
	d="
M213.794983,151.237305 
	C219.759171,158.945435 224.115707,167.156876 227.982422,175.681534 
	C229.529694,179.092712 229.212448,181.655716 226.950333,184.790497 
	C219.266113,195.439087 211.965057,206.364166 204.934525,217.525253 
	C214.698975,209.122833 221.807114,198.259323 230.991562,189.334763 
	C235.936996,194.496140 236.204391,202.052979 231.979935,206.786743 
	C218.673096,221.697922 205.441406,236.676468 192.071854,251.531021 
	C190.458115,253.323990 188.934555,257.191315 186.012985,255.288788 
	C182.736572,253.155182 178.088394,250.583694 178.640091,246.009521 
	C179.581482,238.204041 177.130753,231.961136 172.357651,226.224304 
	C170.712006,224.246368 170.843506,221.869263 170.848328,219.556061 
	C170.872849,207.821762 165.995514,197.582718 161.065704,187.368179 
	C159.564178,184.257034 156.523987,183.354095 153.499054,183.421143 
	C142.044296,183.675034 130.608170,183.829697 119.150215,183.196732 
	C115.001411,182.967545 110.885284,184.591263 107.294106,186.715973 
	C103.776031,188.797409 101.636063,187.757843 99.259155,184.907669 
	C89.791641,173.555084 77.765350,165.632370 64.491096,159.412949 
	C57.171482,155.983490 49.562641,153.864761 41.640633,154.071579 
	C40.517799,152.028351 41.663818,150.817795 42.439140,149.624802 
	C53.057915,133.285385 64.064735,117.185089 74.243187,100.576797 
	C82.030724,87.869812 92.697998,85.226479 106.374046,88.187561 
	C117.268822,90.546440 127.072197,95.439865 137.181259,99.695984 
	C161.573410,109.965546 184.786301,122.183022 204.161560,140.629654 
	C207.525833,143.832687 210.444382,147.503891 213.794983,151.237305 
M106.204010,94.223137 
	C99.375397,92.952942 92.754822,92.728134 87.213524,97.857307 
	C91.197647,97.216156 95.017776,95.849800 98.941597,94.921959 
	C102.860886,93.995201 106.809212,95.434334 110.799812,95.180832 
	C109.520905,94.893715 108.241997,94.606598 106.204010,94.223137 
z"/>
<path fill="#004080" opacity="1.000000" stroke="none" 
	d="
M117.592133,336.295959 
	C110.886513,322.366913 111.168922,308.323029 114.857750,293.317017 
	C113.190018,294.813385 113.352020,296.943695 110.582886,297.523590 
	C107.775848,293.746002 107.193344,288.862823 106.783516,284.116730 
	C106.162888,276.929382 107.237488,269.812775 109.127747,262.877625 
	C110.207138,258.917511 109.910675,255.431427 107.621643,251.944397 
	C105.987564,249.455078 104.596367,246.742508 103.520912,243.965332 
	C101.938156,239.878067 98.954315,238.198059 95.230904,235.936646 
	C89.668808,232.558502 83.518051,231.087585 78.005531,228.066315 
	C73.190491,225.427338 71.938942,220.929047 73.202019,215.217514 
	C77.574318,220.009323 83.024567,220.924286 88.772957,221.026245 
	C95.586922,221.147079 102.397858,221.388214 109.195786,220.592148 
	C117.878258,219.575348 125.708275,221.661789 132.576797,227.167465 
	C134.877716,229.011841 138.006592,229.646255 139.746811,232.522842 
	C135.863983,232.242432 132.678360,230.167328 129.525101,228.094162 
	C126.303177,225.975845 123.032288,223.809082 119.132301,223.492981 
	C115.162704,223.171204 111.086090,223.002625 107.168030,223.556747 
	C103.604286,224.060760 99.594315,223.318695 95.983932,226.212021 
	C98.675392,227.589661 101.000168,227.012131 103.144844,226.566254 
	C107.375427,225.686722 110.962852,226.819931 114.483833,229.083145 
	C123.137115,234.645309 132.496170,239.286697 138.251389,248.433746 
	C140.028503,251.258194 143.732544,251.265488 146.207977,252.882751 
	C146.033859,253.616913 146.025452,254.156128 145.879196,254.196548 
	C139.763245,255.886719 138.616119,260.931183 137.329376,266.183777 
	C134.935242,275.956818 130.593994,285.029358 125.706161,293.728149 
	C117.740295,307.904846 117.394234,322.096649 123.727295,336.868500 
	C125.425186,340.828796 126.343697,344.899963 132.888763,342.227234 
	C126.255180,348.363678 129.891144,354.279083 131.787643,360.175476 
	C135.512161,371.755249 138.768326,383.442535 139.671402,395.647034 
	C140.108795,401.558075 140.041031,407.433746 138.310669,413.747131 
	C136.109772,411.988892 136.152954,409.937042 135.756958,408.119019 
	C131.970749,390.736481 128.268219,373.335419 124.406960,355.969635 
	C122.923088,349.296021 120.674767,342.844666 117.592133,336.295959 
z"/>
<path fill="#004080" opacity="1.000000" stroke="none" 
	d="
M175.386612,379.534302 
	C169.676239,367.811646 164.710983,356.205872 160.587845,344.206116 
	C155.585236,329.646820 156.456451,314.700592 157.277191,299.833099 
	C158.158417,283.870239 163.467178,269.016571 169.789459,254.372940 
	C173.323517,246.187408 176.408218,236.680450 167.930038,229.429367 
	C162.229904,224.554230 156.416260,219.769089 151.323608,214.333298 
	C138.480301,200.624557 121.757782,197.532852 104.311867,196.389313 
	C97.947227,195.972137 91.435097,194.278061 85.102859,196.923065 
	C86.904343,200.875229 87.878464,201.557144 91.740356,199.911789 
	C95.869766,198.152466 99.190239,198.531998 102.833206,201.247879 
	C108.690926,205.614929 115.772209,205.134171 122.582077,204.999649 
	C126.454483,204.923187 129.103485,206.167191 131.449738,209.316498 
	C136.618958,216.255005 144.444412,220.143387 150.971237,225.536697 
	C152.953140,227.174438 155.475372,228.270752 157.033340,231.169800 
	C153.947128,231.951691 151.753677,230.635834 149.756317,229.474579 
	C145.153870,226.798706 140.472763,224.153748 136.270920,220.915726 
	C128.470383,214.904495 119.669006,214.545532 110.596184,215.729156 
	C101.142967,216.962387 91.722832,217.238266 82.276146,215.989243 
	C80.856041,215.801483 79.268547,215.815857 77.581734,214.042450 
	C85.804344,211.448288 93.911652,214.549408 101.865837,212.863693 
	C98.497055,210.148499 94.792625,209.918060 90.901085,210.238968 
	C87.267151,210.538651 83.877052,209.857422 81.458023,206.801102 
	C77.530968,201.839462 79.739952,195.177505 85.762299,193.504745 
	C90.808876,192.103012 95.839523,192.125198 101.071465,192.408188 
	C106.079597,192.679108 107.867661,185.940033 113.356956,185.483215 
	C117.116570,185.170364 120.751381,184.285675 124.667336,184.562103 
	C131.796036,185.065308 138.976440,184.780243 146.129181,185.012192 
	C155.994888,185.332153 158.819473,187.718079 162.379120,196.766281 
	C165.888718,205.687332 167.019287,215.097137 168.927917,224.357666 
	C169.191574,225.637009 169.375198,227.237564 170.215225,228.045258 
	C176.994949,234.563995 179.256516,242.207901 176.010620,251.392685 
	C179.411652,252.045700 182.151642,253.116119 184.115158,255.571854 
	C186.110184,258.066925 185.653244,259.807098 182.538437,260.711365 
	C181.743591,260.942139 180.856308,261.346069 180.113571,261.188690 
	C172.815323,259.642059 171.144653,264.477417 168.888763,269.938965 
	C161.590668,287.607941 162.037277,305.897430 162.478851,324.497284 
	C162.895187,342.035095 172.668610,355.904175 178.437363,371.316986 
	C183.203583,384.051178 188.708435,396.510101 192.977951,409.650208 
	C189.346817,408.238312 187.582550,405.856537 182.804108,395.780457 
	C180.307343,390.515625 177.964554,385.177765 175.386612,379.534302 
M134.373138,190.724869 
	C138.136551,191.996094 141.918106,195.251709 145.613647,194.259491 
	C153.109619,192.246872 156.129578,196.288116 158.949783,201.739548 
	C159.471039,202.747147 159.723221,204.275879 161.358063,204.509964 
	C158.888000,190.936020 156.016022,188.435928 142.827408,188.225647 
	C136.861588,188.130524 130.905075,188.557037 124.938354,187.413147 
	C121.909439,186.832474 118.569946,186.725540 114.919853,188.031189 
	C118.073997,189.901291 120.856926,190.180054 123.698929,190.078903 
	C127.002022,189.961365 130.322586,189.165710 134.373138,190.724869 
z"/>
<path fill="#004080" opacity="1.000000" stroke="none" 
	d="
M289.876587,280.661072 
	C289.001801,302.383240 289.964722,323.679901 290.358948,344.969147 
	C290.596710,357.810089 290.556244,370.587891 288.997650,383.335632 
	C288.479187,387.576355 287.650940,391.758423 285.355164,396.098846 
	C282.799683,392.416168 283.810333,388.589722 283.096008,385.169922 
	C281.958435,379.723816 280.497833,374.512695 277.405853,369.847473 
	C273.572601,364.063721 273.981171,357.619995 274.003571,351.061676 
	C274.058136,335.094604 273.746124,319.123688 273.381531,303.158905 
	C273.218292,296.011963 272.498322,288.879456 272.177124,281.733795 
	C271.976013,277.260284 274.772278,275.119873 278.752167,274.255829 
	C283.754791,273.169708 287.591217,275.299164 289.876587,280.661072 
M283.230865,279.708160 
	C283.230865,294.327789 283.230865,308.947418 283.230865,323.567078 
	C283.696411,323.564026 284.161987,323.561005 284.627533,323.557983 
	C285.424988,308.811920 283.890656,294.115265 283.230865,279.708160 
z"/>
<path fill="#004080" opacity="1.000000" stroke="none" 
	d="
M39.724709,157.381348 
	C41.554241,155.312378 42.937931,156.081894 43.751587,157.848038 
	C50.962978,173.501114 63.424854,184.809189 75.509224,196.440948 
	C78.085655,198.920898 78.099442,199.180420 77.383781,203.502304 
	C75.818085,204.418823 74.886482,203.200623 73.975090,202.349777 
	C62.792950,191.910370 51.843708,181.254913 43.466152,168.303314 
	C41.378860,165.076370 39.502781,161.753082 39.724709,157.381348 
z"/>
<path fill="#004080" opacity="1.000000" stroke="none" 
	d="
M281.821228,258.826782 
	C289.202667,260.502045 290.844543,264.274689 288.435181,274.215912 
	C284.249054,272.154388 279.959564,272.427124 275.670685,273.893188 
	C274.433960,274.315918 273.530640,273.805450 272.972931,272.455811 
	C270.081482,265.458710 273.873413,259.250610 281.821228,258.826782 
z"/>
<path fill="#004080" opacity="1.000000" stroke="none" 
	d="
M281.925415,121.125786 
	C284.087006,128.731064 285.428772,136.087326 286.401398,143.515167 
	C286.572296,144.820465 286.934448,146.418991 285.264404,146.915543 
	C283.495972,147.441360 283.045288,145.932999 282.735931,144.601257 
	C279.241730,129.559723 275.756317,114.516129 272.304901,99.464745 
	C272.215881,99.076523 272.539764,98.593613 273.011200,97.018578 
	C277.595612,104.987526 279.456879,112.959976 281.925415,121.125786 
z"/>
<path fill="#004080" opacity="1.000000" stroke="none" 
	d="
M271.478027,131.241241 
	C265.490845,115.856720 260.291443,100.563118 255.394257,84.681488 
	C258.324677,84.716896 258.715424,86.563416 259.373749,87.867210 
	C265.830475,100.654579 270.673187,114.045029 273.955658,127.982468 
	C274.310699,129.489975 275.837128,132.489319 271.478027,131.241241 
z"/>
</svg>