<?xml version="1.0" encoding="UTF-8" standalone="no"?>
<!DOCTYPE svg PUBLIC "-//W3C//DTD SVG 1.1//EN" "http://www.w3.org/Graphics/SVG/1.1/DTD/svg11.dtd">
<svg xmlns="http://www.w3.org/2000/svg" version="1.1" viewBox="0.00 0.00 318.00 422.00" width="318.00" height="422.00">
<g stroke-width="2.00" fill="none" stroke-linecap="butt">
<path stroke="#999999" vector-effect="non-scaling-stroke" d="
  M 225.26 220.37
  L 270.18 242.71
  A 0.77 0.77 0.0 0 0 271.26 242.25
  Q 273.41 235.55 279.33 233.25
  A 0.93 0.91 80.4 0 0 279.91 232.42
  C 280.39 215.85 280.39 198.62 277.00 182.19
  Q 276.65 180.45 275.89 178.77
  C 264.29 152.90 251.17 127.72 238.05 102.24
  Q 237.57 101.30 236.50 101.03
  Q 222.09 97.33 206.82 92.15
  C 171.52 80.19 137.81 65.61 103.28 50.41
  Q 58.26 30.59 11.23 9.23
  Q 10.96 9.11 10.67 9.20
  A 0.64 0.64 0.0 0 0 10.27 10.00
  Q 15.85 27.00 24.69 44.08
  Q 41.90 77.38 61.94 109.05
  A 0.53 0.52 44.8 0 0 62.83 109.05
  Q 69.00 99.29 76.67 89.69
  C 83.78 80.79 98.65 81.67 108.79 83.91
  Q 114.15 85.09 124.43 88.86
  C 155.31 100.19 184.20 115.10 208.04 137.19
  Q 220.25 148.50 226.90 159.91
  Q 238.56 179.89 239.14 203.26
  A 2.63 2.61 65.5 0 1 238.46 205.10
  L 225.15 219.79
  A 0.37 0.37 0.0 0 0 225.26 220.37"
/>
<path stroke="#999999" vector-effect="non-scaling-stroke" d="
  M 266.83 108.69
  Q 262.00 95.47 255.47 83.04
  Q 255.44 82.99 255.39 83.01
  L 255.15 83.11
  A 0.33 0.33 0.0 0 0 254.97 83.52
  L 270.46 129.71
  A 0.55 0.41 22.7 0 0 270.56 129.88
  Q 271.72 131.08 272.43 130.63
  Q 273.03 130.26 272.88 129.56
  Q 270.30 118.20 266.83 108.69"
/>
<path stroke="#999999" vector-effect="non-scaling-stroke" d="
  M 187.29 238.32
  Q 187.22 238.27 187.27 238.20
  Q 207.24 209.35 227.70 179.81
  A 1.01 0.98 -38.5 0 0 227.82 178.88
  Q 218.59 154.17 199.86 137.51
  Q 177.65 117.74 148.12 104.67
  Q 135.47 99.07 121.87 92.94
  Q 110.02 87.60 96.15 86.72
  Q 90.76 86.37 86.80 87.61
  C 81.91 89.14 76.86 95.43 74.16 99.61
  Q 56.90 126.24 40.08 152.00
  Q 39.70 152.57 40.39 152.51
  C 48.76 151.82 56.77 154.49 64.27 157.97
  Q 87.81 168.88 101.43 186.46
  A 0.94 0.94 0.0 0 0 102.68 186.68
  C 109.05 182.74 116.11 180.49 123.83 181.36
  C 130.09 182.06 136.36 182.69 142.65 181.84
  Q 150.20 180.82 156.80 182.49
  Q 159.34 183.13 160.44 185.39
  Q 165.05 194.84 168.16 203.57
  Q 170.79 210.96 170.84 222.51
  A 1.79 1.78 28.9 0 0 171.12 223.47
  C 173.88 227.85 177.11 230.98 178.33 236.05
  C 179.10 239.22 178.56 242.88 178.17 246.11
  Q 178.10 246.72 178.53 247.15
  L 185.72 254.37
  A 0.66 0.65 -46.5 0 0 186.68 254.34
  L 233.32 201.97
  A 1.54 1.53 -30.4 0 0 233.68 200.61
  L 231.14 188.78
  A 0.44 0.44 0.0 0 0 230.38 188.58
  Q 208.74 213.50 187.50 238.30
  Q 187.41 238.41 187.29 238.32
  L 187.29 238.32"
/>
<path stroke="#999999" vector-effect="non-scaling-stroke" d="
  M 275.87 106.66
  Q 273.11 99.18 272.16 97.00
  Q 272.13 96.92 272.05 96.95
  L 271.80 97.03
  Q 271.55 97.11 271.61 97.37
  L 282.58 145.22
  A 1.06 1.06 0.0 0 0 283.66 146.04
  Q 283.89 146.03 284.12 146.00
  A 0.89 0.89 0.0 0 0 284.90 145.02
  Q 282.67 125.11 275.87 106.66"
/>
<path stroke="#999999" vector-effect="non-scaling-stroke" d="
  M 42.22 157.19
  Q 41.87 155.71 40.34 155.55
  A 1.22 1.22 0.0 0 0 39.01 156.94
  C 40.03 163.99 45.72 171.41 50.28 176.84
  Q 61.38 190.06 75.60 202.58
  Q 76.29 203.19 76.22 202.27
  L 75.95 198.52
  Q 75.89 197.60 75.20 196.99
  Q 59.48 183.04 48.38 168.26
  C 46.19 165.35 43.08 160.83 42.22 157.19"
/>
<path stroke="#999999" vector-effect="non-scaling-stroke" d="
  M 285.79 202.89
  Q 283.63 198.33 284.36 194.58
  C 285.87 186.90 282.40 179.20 278.13 172.60
  Q 277.73 171.98 277.89 172.70
  C 278.15 173.90 278.72 174.92 278.93 176.17
  Q 282.88 199.05 284.19 223.14
  Q 284.40 226.95 284.24 230.99
  C 284.19 232.14 284.51 233.39 285.21 234.33
  C 289.01 239.44 289.98 245.34 290.29 251.57
  A 1.32 1.32 0.0 0 0 291.03 252.69
  L 301.54 257.73
  Q 302.20 258.05 302.25 257.31
  Q 302.58 252.24 301.10 247.20
  Q 295.53 228.25 289.78 212.43
  Q 288.01 207.54 285.79 202.89"
/>
<path stroke="#999999" vector-effect="non-scaling-stroke" d="
  M 108.70 193.19
  Q 104.25 193.01 99.56 192.43
  C 93.29 191.65 88.09 192.25 82.39 194.04
  Q 80.46 194.64 79.94 196.67
  Q 77.67 205.57 85.06 208.01
  C 87.89 208.95 91.05 208.55 93.96 208.15
  A 3.16 3.06 51.3 0 1 95.54 208.35
  L 106.44 212.65
  Q 107.90 213.22 106.33 213.29
  Q 97.76 213.64 89.33 212.95
  C 85.55 212.64 81.74 212.84 77.92 212.94
  Q 74.82 213.03 77.88 213.56
  Q 84.48 214.71 92.02 215.13
  C 99.02 215.51 106.39 214.24 113.47 213.64
  C 119.25 213.15 127.23 213.65 132.35 217.18
  Q 139.25 221.94 146.45 226.34
  Q 150.63 228.89 154.93 230.18
  Q 156.97 230.79 155.28 229.50
  Q 145.47 221.98 134.99 214.21
  Q 132.17 212.12 127.13 205.57
  A 1.13 1.10 71.3 0 0 126.27 205.13
  Q 120.76 204.96 115.26 204.81
  C 107.66 204.60 102.93 202.45 97.07 197.95
  Q 96.57 197.57 96.01 197.84
  Q 92.71 199.41 89.00 200.52
  Q 86.13 201.39 84.18 199.11
  L 82.32 196.94
  Q 80.40 194.69 83.36 194.55
  C 87.60 194.34 91.92 193.44 96.12 194.06
  Q 103.01 195.07 110.80 194.68
  Q 113.29 194.55 115.54 195.48
  Q 122.62 198.38 130.02 199.58
  C 135.13 200.41 138.99 202.20 142.80 205.65
  Q 153.72 215.52 162.09 223.59
  Q 163.80 225.24 166.00 226.46
  C 170.10 228.74 172.99 234.71 172.78 238.93
  Q 172.30 248.32 168.60 256.47
  Q 164.85 264.75 164.83 264.79
  Q 154.51 291.56 157.02 320.50
  Q 157.17 322.23 156.82 327.75
  Q 156.62 330.98 158.56 337.49
  Q 163.05 352.53 168.97 365.30
  Q 176.49 381.51 183.92 397.77
  C 185.86 402.01 188.78 405.28 191.36 409.03
  Q 192.53 410.74 191.63 408.87
  C 188.31 401.92 186.47 394.34 183.59 387.37
  Q 173.00 361.76 162.00 336.56
  Q 161.43 335.26 161.34 333.88
  Q 160.16 316.44 160.27 300.32
  C 160.34 289.73 162.95 280.29 166.59 270.28
  C 168.99 263.69 172.05 257.38 173.98 250.69
  C 176.54 241.85 175.94 233.56 168.14 227.40
  A 1.71 1.71 0.0 0 1 167.55 226.48
  Q 166.44 222.01 165.69 217.50
  C 165.23 214.71 165.50 212.03 164.81 209.24
  Q 162.57 200.22 159.35 192.43
  C 158.23 189.73 156.28 186.68 153.32 186.07
  Q 144.56 184.27 135.73 184.84
  C 130.91 185.15 126.70 184.61 122.04 184.26
  C 118.35 183.99 113.48 184.58 110.00 186.43
  C 108.06 187.47 106.48 187.46 104.88 189.35
  A 1.16 1.16 0.0 0 0 105.30 191.16
  L 108.82 192.68
  Q 110.12 193.25 108.70 193.19"
/>
<path stroke="#999999" vector-effect="non-scaling-stroke" d="
  M 90.75 227.24
  Q 90.65 227.14 90.75 227.04
  C 92.88 224.82 95.44 223.12 98.63 222.69
  Q 108.34 221.39 115.27 221.48
  Q 121.72 221.56 126.76 224.91
  Q 135.02 230.40 141.28 232.48
  Q 141.34 232.50 141.37 232.44
  Q 141.41 232.34 141.40 232.35
  Q 141.36 232.40 141.31 232.38
  Q 134.13 229.20 128.55 225.12
  C 122.90 220.99 116.40 219.72 109.48 220.30
  Q 97.49 221.31 85.40 220.94
  C 82.49 220.85 73.69 219.00 73.00 215.70
  Q 72.87 215.05 72.65 215.67
  Q 72.35 216.48 72.35 217.32
  C 72.25 226.16 81.26 229.88 88.85 229.14
  Q 89.58 229.07 89.66 229.80
  Q 89.90 232.30 91.76 233.59
  C 95.78 236.36 101.26 235.49 105.42 233.22
  C 107.23 232.24 108.89 232.49 110.70 233.24
  Q 119.94 237.07 124.72 241.98
  C 126.53 243.84 127.26 246.62 127.53 249.17
  C 129.30 266.31 117.40 280.78 113.54 297.16
  Q 110.40 310.50 113.27 323.78
  C 114.62 330.05 117.84 335.94 120.12 341.89
  Q 123.31 350.20 126.23 363.98
  Q 131.19 387.38 136.59 412.33
  Q 136.61 412.39 136.66 412.43
  Q 136.76 412.52 136.91 412.54
  Q 137.07 412.56 137.09 412.39
  C 138.09 402.17 138.46 392.49 136.43 382.88
  Q 133.10 367.18 127.86 352.46
  Q 125.45 345.70 131.29 342.25
  A 0.42 0.41 55.6 0 0 131.40 341.63
  L 131.18 341.36
  A 0.34 0.32 54.7 0 0 130.77 341.28
  L 126.26 343.85
  A 0.66 0.65 62.0 0 1 125.35 343.57
  Q 119.32 331.51 117.59 319.39
  C 116.98 315.16 117.04 310.59 118.33 306.52
  C 121.49 296.54 126.87 287.13 131.13 277.60
  Q 135.04 268.85 137.28 257.92
  C 137.98 254.46 140.09 254.54 142.90 253.63
  Q 147.33 252.21 142.73 251.57
  C 139.80 251.17 137.22 249.06 135.59 246.66
  C 132.23 241.73 127.90 237.55 122.70 234.64
  Q 116.73 231.29 111.14 227.52
  Q 107.43 225.02 103.46 225.97
  Q 99.72 226.86 96.01 227.12
  A 2.53 2.51 -30.3 0 1 94.50 226.73
  Q 92.46 225.42 91.01 227.42
  Q 90.98 227.46 90.95 227.43
  L 90.75 227.24"
/>
<path stroke="#999999" vector-effect="non-scaling-stroke" d="
  M 114.23 285.94
  C 117.98 278.83 120.47 271.32 123.54 263.40
  C 129.40 248.24 122.21 238.89 107.87 234.36
  A 1.95 1.94 -55.9 0 0 106.04 234.72
  Q 103.77 236.61 100.84 236.66
  Q 100.26 236.68 100.50 237.20
  Q 104.19 245.46 108.56 252.89
  C 109.71 254.84 110.18 257.05 109.56 259.25
  C 107.22 267.55 105.43 277.60 106.85 286.23
  Q 107.69 291.39 109.53 295.98
  A 0.60 0.60 0.0 0 0 110.52 296.17
  Q 111.08 295.60 111.33 294.81
  C 112.26 291.90 112.82 288.61 114.23 285.94"
/>
<path stroke="#999999" vector-effect="non-scaling-stroke" d="
  M 281.41 247.24
  Q 281.96 250.92 282.13 254.91
  A 0.57 0.56 -81.3 0 0 282.49 255.41
  L 287.31 257.28
  A 0.26 0.25 -77.1 0 0 287.65 257.06
  C 288.04 251.72 287.19 233.95 277.73 238.97
  C 271.09 242.50 271.68 251.02 272.58 257.55
  Q 272.66 258.13 273.17 257.83
  Q 276.26 256.01 280.02 255.90
  A 1.05 1.04 -1.1 0 0 281.04 254.85
  Q 281.01 251.01 281.19 247.25
  Q 281.24 246.09 281.41 247.24"
/>
<path stroke="#999999" vector-effect="non-scaling-stroke" d="
  M 176.17 252.14
  C 175.40 254.46 174.30 256.58 172.95 258.66
  A 0.54 0.54 0.0 0 0 173.34 259.48
  Q 179.42 260.20 183.81 258.15
  A 0.67 0.67 0.0 0 0 184.04 257.12
  Q 181.34 253.83 177.74 251.57
  A 1.07 1.06 -64.8 0 0 176.17 252.14"
/>
<path stroke="#999999" vector-effect="non-scaling-stroke" d="
  M 280.32 270.86
  A 0.81 0.80 -2.8 0 0 281.05 270.06
  L 281.01 260.45
  Q 281.00 257.46 278.18 258.44
  L 275.56 259.35
  Q 272.68 260.35 272.62 263.41
  L 272.46 272.30
  Q 272.45 272.85 272.97 272.65
  Q 276.74 271.20 280.32 270.86"
/>
<path stroke="#999999" vector-effect="non-scaling-stroke" d="
  M 283.11 270.74
  A 0.48 0.48 0.0 0 0 283.41 271.15
  L 287.09 272.65
  A 0.48 0.48 0.0 0 0 287.75 272.18
  L 287.13 261.17
  A 0.48 0.48 0.0 0 0 286.86 260.77
  L 283.10 258.86
  A 0.48 0.48 0.0 0 0 282.40 259.32
  L 283.11 270.74"
/>
<path stroke="#999999" vector-effect="non-scaling-stroke" d="
  M 284.32 348.14
  Q 283.46 339.58 283.12 332.75
  Q 281.64 303.39 281.16 275.59
  Q 281.11 272.61 278.37 273.77
  L 274.38 275.45
  Q 271.65 276.61 271.90 279.56
  Q 272.48 286.48 272.67 291.77
  Q 273.47 313.90 273.93 338.47
  Q 274.10 347.17 273.70 357.76
  C 273.42 365.08 278.38 369.17 280.58 375.57
  Q 283.48 384.05 283.74 394.26
  Q 283.75 394.62 284.11 394.66
  Q 284.38 394.69 284.55 394.47
  Q 284.72 394.25 284.78 393.98
  Q 289.68 373.30 288.85 352.88
  Q 287.53 320.97 287.84 291.39
  Q 287.88 286.76 288.27 280.89
  A 5.79 5.75 27.2 0 0 286.96 276.84
  Q 285.92 275.58 284.48 274.65
  Q 283.21 273.82 283.28 275.34
  Q 285.15 311.33 284.66 347.88
  Q 284.66 348.05 284.56 348.20
  Q 284.35 348.52 284.32 348.14"
/>
<path stroke="#999999" vector-effect="non-scaling-stroke" d="
  M 270.02 182.14
  Q 270.62 183.30 271.29 184.35
  Q 271.37 184.48 271.50 184.40
  L 271.50 184.40
  Q 271.60 184.34 271.55 184.24
  Q 251.47 143.00 233.90 106.82
  Q 233.48 105.96 232.92 106.73
  L 231.80 108.25
  Q 231.22 109.05 231.69 109.91
  Q 250.92 145.67 270.02 182.14"
/>
<path stroke="#999999" vector-effect="non-scaling-stroke" d="
  M 125.29 99.65
  Q 112.81 92.99 100.28 92.10
  C 96.31 91.81 89.26 91.98 86.22 95.11
  Q 81.53 99.94 77.07 106.65
  Q 76.99 106.76 77.10 106.84
  L 77.30 106.99
  A 0.02 0.02 0.0 0 0 77.33 106.98
  Q 83.58 98.28 95.35 95.28
  Q 102.02 93.59 109.44 95.23
  Q 118.02 97.13 125.19 99.85
  Q 125.29 99.89 125.33 99.80
  L 125.33 99.79
  Q 125.37 99.70 125.29 99.65"
/>
<path stroke="#999999" vector-effect="non-scaling-stroke" d="
  M 111.15 186.55
  Q 108.69 187.32 111.13 188.15
  Q 117.37 190.27 123.85 189.68
  Q 126.05 189.48 128.30 189.43
  C 131.85 189.35 135.55 191.25 138.76 192.67
  C 142.86 194.48 147.06 194.27 151.30 193.31
  A 1.62 1.61 68.4 0 1 153.05 194.07
  Q 157.49 201.63 161.70 208.81
  C 162.58 210.31 162.98 212.34 164.02 213.71
  Q 164.73 214.64 164.49 213.50
  Q 161.95 201.51 156.53 190.77
  C 155.70 189.14 154.35 188.12 152.56 187.77
  C 148.49 186.99 144.31 186.42 140.14 186.47
  Q 136.50 186.51 132.83 186.52
  C 127.88 186.53 123.02 185.25 118.00 185.36
  Q 114.71 185.44 111.15 186.55"
/>
</g>
<g fill="#ffffff">
<path d="
  M 0.00 0.00
  L 318.00 0.00
  L 318.00 422.00
  L 0.00 422.00
  L 0.00 0.00
  Z
  M 225.26 220.37
  L 270.18 242.71
  A 0.77 0.77 0.0 0 0 271.26 242.25
  Q 273.41 235.55 279.33 233.25
  A 0.93 0.91 80.4 0 0 279.91 232.42
  C 280.39 215.85 280.39 198.62 277.00 182.19
  Q 276.65 180.45 275.89 178.77
  C 264.29 152.90 251.17 127.72 238.05 102.24
  Q 237.57 101.30 236.50 101.03
  Q 222.09 97.33 206.82 92.15
  C 171.52 80.19 137.81 65.61 103.28 50.41
  Q 58.26 30.59 11.23 9.23
  Q 10.96 9.11 10.67 9.20
  A 0.64 0.64 0.0 0 0 10.27 10.00
  Q 15.85 27.00 24.69 44.08
  Q 41.90 77.38 61.94 109.05
  A 0.53 0.52 44.8 0 0 62.83 109.05
  Q 69.00 99.29 76.67 89.69
  C 83.78 80.79 98.65 81.67 108.79 83.91
  Q 114.15 85.09 124.43 88.86
  C 155.31 100.19 184.20 115.10 208.04 137.19
  Q 220.25 148.50 226.90 159.91
  Q 238.56 179.89 239.14 203.26
  A 2.63 2.61 65.5 0 1 238.46 205.10
  L 225.15 219.79
  A 0.37 0.37 0.0 0 0 225.26 220.37
  Z
  M 266.83 108.69
  Q 262.00 95.47 255.47 83.04
  Q 255.44 82.99 255.39 83.01
  L 255.15 83.11
  A 0.33 0.33 0.0 0 0 254.97 83.52
  L 270.46 129.71
  A 0.55 0.41 22.7 0 0 270.56 129.88
  Q 271.72 131.08 272.43 130.63
  Q 273.03 130.26 272.88 129.56
  Q 270.30 118.20 266.83 108.69
  Z
  M 187.29 238.32
  Q 187.22 238.27 187.27 238.20
  Q 207.24 209.35 227.70 179.81
  A 1.01 0.98 -38.5 0 0 227.82 178.88
  Q 218.59 154.17 199.86 137.51
  Q 177.65 117.74 148.12 104.67
  Q 135.47 99.07 121.87 92.94
  Q 110.02 87.60 96.15 86.72
  Q 90.76 86.37 86.80 87.61
  C 81.91 89.14 76.86 95.43 74.16 99.61
  Q 56.90 126.24 40.08 152.00
  Q 39.70 152.57 40.39 152.51
  C 48.76 151.82 56.77 154.49 64.27 157.97
  Q 87.81 168.88 101.43 186.46
  A 0.94 0.94 0.0 0 0 102.68 186.68
  C 109.05 182.74 116.11 180.49 123.83 181.36
  C 130.09 182.06 136.36 182.69 142.65 181.84
  Q 150.20 180.82 156.80 182.49
  Q 159.34 183.13 160.44 185.39
  Q 165.05 194.84 168.16 203.57
  Q 170.79 210.96 170.84 222.51
  A 1.79 1.78 28.9 0 0 171.12 223.47
  C 173.88 227.85 177.11 230.98 178.33 236.05
  C 179.10 239.22 178.56 242.88 178.17 246.11
  Q 178.10 246.72 178.53 247.15
  L 185.72 254.37
  A 0.66 0.65 -46.5 0 0 186.68 254.34
  L 233.32 201.97
  A 1.54 1.53 -30.4 0 0 233.68 200.61
  L 231.14 188.78
  A 0.44 0.44 0.0 0 0 230.38 188.58
  Q 208.74 213.50 187.50 238.30
  Q 187.41 238.41 187.29 238.32
  L 187.29 238.32
  Z
  M 275.87 106.66
  Q 273.11 99.18 272.16 97.00
  Q 272.13 96.92 272.05 96.95
  L 271.80 97.03
  Q 271.55 97.11 271.61 97.37
  L 282.58 145.22
  A 1.06 1.06 0.0 0 0 283.66 146.04
  Q 283.89 146.03 284.12 146.00
  A 0.89 0.89 0.0 0 0 284.90 145.02
  Q 282.67 125.11 275.87 106.66
  Z
  M 42.22 157.19
  Q 41.87 155.71 40.34 155.55
  A 1.22 1.22 0.0 0 0 39.01 156.94
  C 40.03 163.99 45.72 171.41 50.28 176.84
  Q 61.38 190.06 75.60 202.58
  Q 76.29 203.19 76.22 202.27
  L 75.95 198.52
  Q 75.89 197.60 75.20 196.99
  Q 59.48 183.04 48.38 168.26
  C 46.19 165.35 43.08 160.83 42.22 157.19
  Z
  M 285.79 202.89
  Q 283.63 198.33 284.36 194.58
  C 285.87 186.90 282.40 179.20 278.13 172.60
  Q 277.73 171.98 277.89 172.70
  C 278.15 173.90 278.72 174.92 278.93 176.17
  Q 282.88 199.05 284.19 223.14
  Q 284.40 226.95 284.24 230.99
  C 284.19 232.14 284.51 233.39 285.21 234.33
  C 289.01 239.44 289.98 245.34 290.29 251.57
  A 1.32 1.32 0.0 0 0 291.03 252.69
  L 301.54 257.73
  Q 302.20 258.05 302.25 257.31
  Q 302.58 252.24 301.10 247.20
  Q 295.53 228.25 289.78 212.43
  Q 288.01 207.54 285.79 202.89
  Z
  M 108.70 193.19
  Q 104.25 193.01 99.56 192.43
  C 93.29 191.65 88.09 192.25 82.39 194.04
  Q 80.46 194.64 79.94 196.67
  Q 77.67 205.57 85.06 208.01
  C 87.89 208.95 91.05 208.55 93.96 208.15
  A 3.16 3.06 51.3 0 1 95.54 208.35
  L 106.44 212.65
  Q 107.90 213.22 106.33 213.29
  Q 97.76 213.64 89.33 212.95
  C 85.55 212.64 81.74 212.84 77.92 212.94
  Q 74.82 213.03 77.88 213.56
  Q 84.48 214.71 92.02 215.13
  C 99.02 215.51 106.39 214.24 113.47 213.64
  C 119.25 213.15 127.23 213.65 132.35 217.18
  Q 139.25 221.94 146.45 226.34
  Q 150.63 228.89 154.93 230.18
  Q 156.97 230.79 155.28 229.50
  Q 145.47 221.98 134.99 214.21
  Q 132.17 212.12 127.13 205.57
  A 1.13 1.10 71.3 0 0 126.27 205.13
  Q 120.76 204.96 115.26 204.81
  C 107.66 204.60 102.93 202.45 97.07 197.95
  Q 96.57 197.57 96.01 197.84
  Q 92.71 199.41 89.00 200.52
  Q 86.13 201.39 84.18 199.11
  L 82.32 196.94
  Q 80.40 194.69 83.36 194.55
  C 87.60 194.34 91.92 193.44 96.12 194.06
  Q 103.01 195.07 110.80 194.68
  Q 113.29 194.55 115.54 195.48
  Q 122.62 198.38 130.02 199.58
  C 135.13 200.41 138.99 202.20 142.80 205.65
  Q 153.72 215.52 162.09 223.59
  Q 163.80 225.24 166.00 226.46
  C 170.10 228.74 172.99 234.71 172.78 238.93
  Q 172.30 248.32 168.60 256.47
  Q 164.85 264.75 164.83 264.79
  Q 154.51 291.56 157.02 320.50
  Q 157.17 322.23 156.82 327.75
  Q 156.62 330.98 158.56 337.49
  Q 163.05 352.53 168.97 365.30
  Q 176.49 381.51 183.92 397.77
  C 185.86 402.01 188.78 405.28 191.36 409.03
  Q 192.53 410.74 191.63 408.87
  C 188.31 401.92 186.47 394.34 183.59 387.37
  Q 173.00 361.76 162.00 336.56
  Q 161.43 335.26 161.34 333.88
  Q 160.16 316.44 160.27 300.32
  C 160.34 289.73 162.95 280.29 166.59 270.28
  C 168.99 263.69 172.05 257.38 173.98 250.69
  C 176.54 241.85 175.94 233.56 168.14 227.40
  A 1.71 1.71 0.0 0 1 167.55 226.48
  Q 166.44 222.01 165.69 217.50
  C 165.23 214.71 165.50 212.03 164.81 209.24
  Q 162.57 200.22 159.35 192.43
  C 158.23 189.73 156.28 186.68 153.32 186.07
  Q 144.56 184.27 135.73 184.84
  C 130.91 185.15 126.70 184.61 122.04 184.26
  C 118.35 183.99 113.48 184.58 110.00 186.43
  C 108.06 187.47 106.48 187.46 104.88 189.35
  A 1.16 1.16 0.0 0 0 105.30 191.16
  L 108.82 192.68
  Q 110.12 193.25 108.70 193.19
  Z
  M 90.75 227.24
  Q 90.65 227.14 90.75 227.04
  C 92.88 224.82 95.44 223.12 98.63 222.69
  Q 108.34 221.39 115.27 221.48
  Q 121.72 221.56 126.76 224.91
  Q 135.02 230.40 141.28 232.48
  Q 141.34 232.50 141.37 232.44
  Q 141.41 232.34 141.40 232.35
  Q 141.36 232.40 141.31 232.38
  Q 134.13 229.20 128.55 225.12
  C 122.90 220.99 116.40 219.72 109.48 220.30
  Q 97.49 221.31 85.40 220.94
  C 82.49 220.85 73.69 219.00 73.00 215.70
  Q 72.87 215.05 72.65 215.67
  Q 72.35 216.48 72.35 217.32
  C 72.25 226.16 81.26 229.88 88.85 229.14
  Q 89.58 229.07 89.66 229.80
  Q 89.90 232.30 91.76 233.59
  C 95.78 236.36 101.26 235.49 105.42 233.22
  C 107.23 232.24 108.89 232.49 110.70 233.24
  Q 119.94 237.07 124.72 241.98
  C 126.53 243.84 127.26 246.62 127.53 249.17
  C 129.30 266.31 117.40 280.78 113.54 297.16
  Q 110.40 310.50 113.27 323.78
  C 114.62 330.05 117.84 335.94 120.12 341.89
  Q 123.31 350.20 126.23 363.98
  Q 131.19 387.38 136.59 412.33
  Q 136.61 412.39 136.66 412.43
  Q 136.76 412.52 136.91 412.54
  Q 137.07 412.56 137.09 412.39
  C 138.09 402.17 138.46 392.49 136.43 382.88
  Q 133.10 367.18 127.86 352.46
  Q 125.45 345.70 131.29 342.25
  A 0.42 0.41 55.6 0 0 131.40 341.63
  L 131.18 341.36
  A 0.34 0.32 54.7 0 0 130.77 341.28
  L 126.26 343.85
  A 0.66 0.65 62.0 0 1 125.35 343.57
  Q 119.32 331.51 117.59 319.39
  C 116.98 315.16 117.04 310.59 118.33 306.52
  C 121.49 296.54 126.87 287.13 131.13 277.60
  Q 135.04 268.85 137.28 257.92
  C 137.98 254.46 140.09 254.54 142.90 253.63
  Q 147.33 252.21 142.73 251.57
  C 139.80 251.17 137.22 249.06 135.59 246.66
  C 132.23 241.73 127.90 237.55 122.70 234.64
  Q 116.73 231.29 111.14 227.52
  Q 107.43 225.02 103.46 225.97
  Q 99.72 226.86 96.01 227.12
  A 2.53 2.51 -30.3 0 1 94.50 226.73
  Q 92.46 225.42 91.01 227.42
  Q 90.98 227.46 90.95 227.43
  L 90.75 227.24
  Z
  M 114.23 285.94
  C 117.98 278.83 120.47 271.32 123.54 263.40
  C 129.40 248.24 122.21 238.89 107.87 234.36
  A 1.95 1.94 -55.9 0 0 106.04 234.72
  Q 103.77 236.61 100.84 236.66
  Q 100.26 236.68 100.50 237.20
  Q 104.19 245.46 108.56 252.89
  C 109.71 254.84 110.18 257.05 109.56 259.25
  C 107.22 267.55 105.43 277.60 106.85 286.23
  Q 107.69 291.39 109.53 295.98
  A 0.60 0.60 0.0 0 0 110.52 296.17
  Q 111.08 295.60 111.33 294.81
  C 112.26 291.90 112.82 288.61 114.23 285.94
  Z
  M 281.41 247.24
  Q 281.96 250.92 282.13 254.91
  A 0.57 0.56 -81.3 0 0 282.49 255.41
  L 287.31 257.28
  A 0.26 0.25 -77.1 0 0 287.65 257.06
  C 288.04 251.72 287.19 233.95 277.73 238.97
  C 271.09 242.50 271.68 251.02 272.58 257.55
  Q 272.66 258.13 273.17 257.83
  Q 276.26 256.01 280.02 255.90
  A 1.05 1.04 -1.1 0 0 281.04 254.85
  Q 281.01 251.01 281.19 247.25
  Q 281.24 246.09 281.41 247.24
  Z
  M 176.17 252.14
  C 175.40 254.46 174.30 256.58 172.95 258.66
  A 0.54 0.54 0.0 0 0 173.34 259.48
  Q 179.42 260.20 183.81 258.15
  A 0.67 0.67 0.0 0 0 184.04 257.12
  Q 181.34 253.83 177.74 251.57
  A 1.07 1.06 -64.8 0 0 176.17 252.14
  Z
  M 280.32 270.86
  A 0.81 0.80 -2.8 0 0 281.05 270.06
  L 281.01 260.45
  Q 281.00 257.46 278.18 258.44
  L 275.56 259.35
  Q 272.68 260.35 272.62 263.41
  L 272.46 272.30
  Q 272.45 272.85 272.97 272.65
  Q 276.74 271.20 280.32 270.86
  Z
  M 283.11 270.74
  A 0.48 0.48 0.0 0 0 283.41 271.15
  L 287.09 272.65
  A 0.48 0.48 0.0 0 0 287.75 272.18
  L 287.13 261.17
  A 0.48 0.48 0.0 0 0 286.86 260.77
  L 283.10 258.86
  A 0.48 0.48 0.0 0 0 282.40 259.32
  L 283.11 270.74
  Z
  M 284.32 348.14
  Q 283.46 339.58 283.12 332.75
  Q 281.64 303.39 281.16 275.59
  Q 281.11 272.61 278.37 273.77
  L 274.38 275.45
  Q 271.65 276.61 271.90 279.56
  Q 272.48 286.48 272.67 291.77
  Q 273.47 313.90 273.93 338.47
  Q 274.10 347.17 273.70 357.76
  C 273.42 365.08 278.38 369.17 280.58 375.57
  Q 283.48 384.05 283.74 394.26
  Q 283.75 394.62 284.11 394.66
  Q 284.38 394.69 284.55 394.47
  Q 284.72 394.25 284.78 393.98
  Q 289.68 373.30 288.85 352.88
  Q 287.53 320.97 287.84 291.39
  Q 287.88 286.76 288.27 280.89
  A 5.79 5.75 27.2 0 0 286.96 276.84
  Q 285.92 275.58 284.48 274.65
  Q 283.21 273.82 283.28 275.34
  Q 285.15 311.33 284.66 347.88
  Q 284.66 348.05 284.56 348.20
  Q 284.35 348.52 284.32 348.14
  Z"
/>
<path d="
  M 125.29 99.65
  Q 125.37 99.70 125.33 99.79
  L 125.33 99.80
  Q 125.29 99.89 125.19 99.85
  Q 118.02 97.13 109.44 95.23
  Q 102.02 93.59 95.35 95.28
  Q 83.58 98.28 77.33 106.98
  A 0.02 0.02 0.0 0 1 77.30 106.99
  L 77.10 106.84
  Q 76.99 106.76 77.07 106.65
  Q 81.53 99.94 86.22 95.11
  C 89.26 91.98 96.31 91.81 100.28 92.10
  Q 112.81 92.99 125.29 99.65
  Z"
/>
<path d="
  M 270.02 182.14
  Q 250.92 145.67 231.69 109.91
  Q 231.22 109.05 231.80 108.25
  L 232.92 106.73
  Q 233.48 105.96 233.90 106.82
  Q 251.47 143.00 271.55 184.24
  Q 271.60 184.34 271.50 184.40
  L 271.50 184.40
  Q 271.37 184.48 271.29 184.35
  Q 270.62 183.30 270.02 182.14
  Z"
/>
<path d="
  M 111.15 186.55
  Q 114.71 185.44 118.00 185.36
  C 123.02 185.25 127.88 186.53 132.83 186.52
  Q 136.50 186.51 140.14 186.47
  C 144.31 186.42 148.49 186.99 152.56 187.77
  C 154.35 188.12 155.70 189.14 156.53 190.77
  Q 161.95 201.51 164.49 213.50
  Q 164.73 214.64 164.02 213.71
  C 162.98 212.34 162.58 210.31 161.70 208.81
  Q 157.49 201.63 153.05 194.07
  A 1.62 1.61 68.4 0 0 151.30 193.31
  C 147.06 194.27 142.86 194.48 138.76 192.67
  C 135.55 191.25 131.85 189.35 128.30 189.43
  Q 126.05 189.48 123.85 189.68
  Q 117.37 190.27 111.13 188.15
  Q 108.69 187.32 111.15 186.55
  Z"
/>
</g>
<g fill="#333333">
<path d="
  M 270.18 242.71
  L 225.26 220.37
  A 0.37 0.37 0.0 0 1 225.15 219.79
  L 238.46 205.10
  A 2.63 2.61 65.5 0 0 239.14 203.26
  Q 238.56 179.89 226.90 159.91
  Q 220.25 148.50 208.04 137.19
  C 184.20 115.10 155.31 100.19 124.43 88.86
  Q 114.15 85.09 108.79 83.91
  C 98.65 81.67 83.78 80.79 76.67 89.69
  Q 69.00 99.29 62.83 109.05
  A 0.53 0.52 44.8 0 1 61.94 109.05
  Q 41.90 77.38 24.69 44.08
  Q 15.85 27.00 10.27 10.00
  A 0.64 0.64 0.0 0 1 10.67 9.20
  Q 10.96 9.11 11.23 9.23
  Q 58.26 30.59 103.28 50.41
  C 137.81 65.61 171.52 80.19 206.82 92.15
  Q 222.09 97.33 236.50 101.03
  Q 237.57 101.30 238.05 102.24
  C 251.17 127.72 264.29 152.90 275.89 178.77
  Q 276.65 180.45 277.00 182.19
  C 280.39 198.62 280.39 215.85 279.91 232.42
  A 0.93 0.91 80.4 0 1 279.33 233.25
  Q 273.41 235.55 271.26 242.25
  A 0.77 0.77 0.0 0 1 270.18 242.71
  Z
  M 270.02 182.14
  Q 270.62 183.30 271.29 184.35
  Q 271.37 184.48 271.50 184.40
  L 271.50 184.40
  Q 271.60 184.34 271.55 184.24
  Q 251.47 143.00 233.90 106.82
  Q 233.48 105.96 232.92 106.73
  L 231.80 108.25
  Q 231.22 109.05 231.69 109.91
  Q 250.92 145.67 270.02 182.14
  Z"
/>
<path d="
  M 266.83 108.69
  Q 270.30 118.20 272.88 129.56
  Q 273.03 130.26 272.43 130.63
  Q 271.72 131.08 270.56 129.88
  A 0.55 0.41 22.7 0 1 270.46 129.71
  L 254.97 83.52
  A 0.33 0.33 0.0 0 1 255.15 83.11
  L 255.39 83.01
  Q 255.44 82.99 255.47 83.04
  Q 262.00 95.47 266.83 108.69
  Z"
/>
<path d="
  M 187.50 238.30
  Q 208.74 213.50 230.38 188.58
  A 0.44 0.44 0.0 0 1 231.14 188.78
  L 233.68 200.61
  A 1.54 1.53 -30.4 0 1 233.32 201.97
  L 186.68 254.34
  A 0.66 0.65 -46.5 0 1 185.72 254.37
  L 178.53 247.15
  Q 178.10 246.72 178.17 246.11
  C 178.56 242.88 179.10 239.22 178.33 236.05
  C 177.11 230.98 173.88 227.85 171.12 223.47
  A 1.79 1.78 28.9 0 1 170.84 222.51
  Q 170.79 210.96 168.16 203.57
  Q 165.05 194.84 160.44 185.39
  Q 159.34 183.13 156.80 182.49
  Q 150.20 180.82 142.65 181.84
  C 136.36 182.69 130.09 182.06 123.83 181.36
  C 116.11 180.49 109.05 182.74 102.68 186.68
  A 0.94 0.94 0.0 0 1 101.43 186.46
  Q 87.81 168.88 64.27 157.97
  C 56.77 154.49 48.76 151.82 40.39 152.51
  Q 39.70 152.57 40.08 152.00
  Q 56.90 126.24 74.16 99.61
  C 76.86 95.43 81.91 89.14 86.80 87.61
  Q 90.76 86.37 96.15 86.72
  Q 110.02 87.60 121.87 92.94
  Q 135.47 99.07 148.12 104.67
  Q 177.65 117.74 199.86 137.51
  Q 218.59 154.17 227.82 178.88
  A 1.01 0.98 -38.5 0 1 227.70 179.81
  Q 207.24 209.35 187.27 238.20
  Q 187.22 238.27 187.29 238.32
  L 187.29 238.32
  Q 187.41 238.41 187.50 238.30
  Z
  M 125.29 99.65
  Q 112.81 92.99 100.28 92.10
  C 96.31 91.81 89.26 91.98 86.22 95.11
  Q 81.53 99.94 77.07 106.65
  Q 76.99 106.76 77.10 106.84
  L 77.30 106.99
  A 0.02 0.02 0.0 0 0 77.33 106.98
  Q 83.58 98.28 95.35 95.28
  Q 102.02 93.59 109.44 95.23
  Q 118.02 97.13 125.19 99.85
  Q 125.29 99.89 125.33 99.80
  L 125.33 99.79
  Q 125.37 99.70 125.29 99.65
  Z"
/>
<path d="
  M 275.87 106.66
  Q 282.67 125.11 284.90 145.02
  A 0.89 0.89 0.0 0 1 284.12 146.00
  Q 283.89 146.03 283.66 146.04
  A 1.06 1.06 0.0 0 1 282.58 145.22
  L 271.61 97.37
  Q 271.55 97.11 271.80 97.03
  L 272.05 96.95
  Q 272.13 96.92 272.16 97.00
  Q 273.11 99.18 275.87 106.66
  Z"
/>
<path d="
  M 42.22 157.19
  C 43.08 160.83 46.19 165.35 48.38 168.26
  Q 59.48 183.04 75.20 196.99
  Q 75.89 197.60 75.95 198.52
  L 76.22 202.27
  Q 76.29 203.19 75.60 202.58
  Q 61.38 190.06 50.28 176.84
  C 45.72 171.41 40.03 163.99 39.01 156.94
  A 1.22 1.22 0.0 0 1 40.34 155.55
  Q 41.87 155.71 42.22 157.19
  Z"
/>
<path d="
  M 285.79 202.89
  Q 288.01 207.54 289.78 212.43
  Q 295.53 228.25 301.10 247.20
  Q 302.58 252.24 302.25 257.31
  Q 302.20 258.05 301.54 257.73
  L 291.03 252.69
  A 1.32 1.32 0.0 0 1 290.29 251.57
  C 289.98 245.34 289.01 239.44 285.21 234.33
  C 284.51 233.39 284.19 232.14 284.24 230.99
  Q 284.40 226.95 284.19 223.14
  Q 282.88 199.05 278.93 176.17
  C 278.72 174.92 278.15 173.90 277.89 172.70
  Q 277.73 171.98 278.13 172.60
  C 282.40 179.20 285.87 186.90 284.36 194.58
  Q 283.63 198.33 285.79 202.89
  Z"
/>
<path d="
  M 108.82 192.68
  L 105.30 191.16
  A 1.16 1.16 0.0 0 1 104.88 189.35
  C 106.48 187.46 108.06 187.47 110.00 186.43
  C 113.48 184.58 118.35 183.99 122.04 184.26
  C 126.70 184.61 130.91 185.15 135.73 184.84
  Q 144.56 184.27 153.32 186.07
  C 156.28 186.68 158.23 189.73 159.35 192.43
  Q 162.57 200.22 164.81 209.24
  C 165.50 212.03 165.23 214.71 165.69 217.50
  Q 166.44 222.01 167.55 226.48
  A 1.71 1.71 0.0 0 0 168.14 227.40
  C 175.94 233.56 176.54 241.85 173.98 250.69
  C 172.05 257.38 168.99 263.69 166.59 270.28
  C 162.95 280.29 160.34 289.73 160.27 300.32
  Q 160.16 316.44 161.34 333.88
  Q 161.43 335.26 162.00 336.56
  Q 173.00 361.76 183.59 387.37
  C 186.47 394.34 188.31 401.92 191.63 408.87
  Q 192.53 410.74 191.36 409.03
  C 188.78 405.28 185.86 402.01 183.92 397.77
  Q 176.49 381.51 168.97 365.30
  Q 163.05 352.53 158.56 337.49
  Q 156.62 330.98 156.82 327.75
  Q 157.17 322.23 157.02 320.50
  Q 154.51 291.56 164.83 264.79
  Q 164.85 264.75 168.60 256.47
  Q 172.30 248.32 172.78 238.93
  C 172.99 234.71 170.10 228.74 166.00 226.46
  Q 163.80 225.24 162.09 223.59
  Q 153.72 215.52 142.80 205.65
  C 138.99 202.20 135.13 200.41 130.02 199.58
  Q 122.62 198.38 115.54 195.48
  Q 113.29 194.55 110.80 194.68
  Q 103.01 195.07 96.12 194.06
  C 91.92 193.44 87.60 194.34 83.36 194.55
  Q 80.40 194.69 82.32 196.94
  L 84.18 199.11
  Q 86.13 201.39 89.00 200.52
  Q 92.71 199.41 96.01 197.84
  Q 96.57 197.57 97.07 197.95
  C 102.93 202.45 107.66 204.60 115.26 204.81
  Q 120.76 204.96 126.27 205.13
  A 1.13 1.10 71.3 0 1 127.13 205.57
  Q 132.17 212.12 134.99 214.21
  Q 145.47 221.98 155.28 229.50
  Q 156.97 230.79 154.93 230.18
  Q 150.63 228.89 146.45 226.34
  Q 139.25 221.94 132.35 217.18
  C 127.23 213.65 119.25 213.15 113.47 213.64
  C 106.39 214.24 99.02 215.51 92.02 215.13
  Q 84.48 214.71 77.88 213.56
  Q 74.82 213.03 77.92 212.94
  C 81.74 212.84 85.55 212.64 89.33 212.95
  Q 97.76 213.64 106.33 213.29
  Q 107.90 213.22 106.44 212.65
  L 95.54 208.35
  A 3.16 3.06 51.3 0 0 93.96 208.15
  C 91.05 208.55 87.89 208.95 85.06 208.01
  Q 77.67 205.57 79.94 196.67
  Q 80.46 194.64 82.39 194.04
  C 88.09 192.25 93.29 191.65 99.56 192.43
  Q 104.25 193.01 108.70 193.19
  Q 110.12 193.25 108.82 192.68
  Z
  M 111.15 186.55
  Q 108.69 187.32 111.13 188.15
  Q 117.37 190.27 123.85 189.68
  Q 126.05 189.48 128.30 189.43
  C 131.85 189.35 135.55 191.25 138.76 192.67
  C 142.86 194.48 147.06 194.27 151.30 193.31
  A 1.62 1.61 68.4 0 1 153.05 194.07
  Q 157.49 201.63 161.70 208.81
  C 162.58 210.31 162.98 212.34 164.02 213.71
  Q 164.73 214.64 164.49 213.50
  Q 161.95 201.51 156.53 190.77
  C 155.70 189.14 154.35 188.12 152.56 187.77
  C 148.49 186.99 144.31 186.42 140.14 186.47
  Q 136.50 186.51 132.83 186.52
  C 127.88 186.53 123.02 185.25 118.00 185.36
  Q 114.71 185.44 111.15 186.55
  Z"
/>
<path d="
  M 91.01 227.42
  Q 92.46 225.42 94.50 226.73
  A 2.53 2.51 -30.3 0 0 96.01 227.12
  Q 99.72 226.86 103.46 225.97
  Q 107.43 225.02 111.14 227.52
  Q 116.73 231.29 122.70 234.64
  C 127.90 237.55 132.23 241.73 135.59 246.66
  C 137.22 249.06 139.80 251.17 142.73 251.57
  Q 147.33 252.21 142.90 253.63
  C 140.09 254.54 137.98 254.46 137.28 257.92
  Q 135.04 268.85 131.13 277.60
  C 126.87 287.13 121.49 296.54 118.33 306.52
  C 117.04 310.59 116.98 315.16 117.59 319.39
  Q 119.32 331.51 125.35 343.57
  A 0.66 0.65 62.0 0 0 126.26 343.85
  L 130.77 341.28
  A 0.34 0.32 54.7 0 1 131.18 341.36
  L 131.40 341.63
  A 0.42 0.41 55.6 0 1 131.29 342.25
  Q 125.45 345.70 127.86 352.46
  Q 133.10 367.18 136.43 382.88
  C 138.46 392.49 138.09 402.17 137.09 412.39
  Q 137.07 412.56 136.91 412.54
  Q 136.76 412.52 136.66 412.43
  Q 136.61 412.39 136.59 412.33
  Q 131.19 387.38 126.23 363.98
  Q 123.31 350.20 120.12 341.89
  C 117.84 335.94 114.62 330.05 113.27 323.78
  Q 110.40 310.50 113.54 297.16
  C 117.40 280.78 129.30 266.31 127.53 249.17
  C 127.26 246.62 126.53 243.84 124.72 241.98
  Q 119.94 237.07 110.70 233.24
  C 108.89 232.49 107.23 232.24 105.42 233.22
  C 101.26 235.49 95.78 236.36 91.76 233.59
  Q 89.90 232.30 89.66 229.80
  Q 89.58 229.07 88.85 229.14
  C 81.26 229.88 72.25 226.16 72.35 217.32
  Q 72.35 216.48 72.65 215.67
  Q 72.87 215.05 73.00 215.70
  C 73.69 219.00 82.49 220.85 85.40 220.94
  Q 97.49 221.31 109.48 220.30
  C 116.40 219.72 122.90 220.99 128.55 225.12
  Q 134.13 229.20 141.31 232.38
  Q 141.36 232.40 141.40 232.35
  Q 141.41 232.34 141.37 232.44
  Q 141.34 232.50 141.28 232.48
  Q 135.02 230.40 126.76 224.91
  Q 121.72 221.56 115.27 221.48
  Q 108.34 221.39 98.63 222.69
  C 95.44 223.12 92.88 224.82 90.75 227.04
  Q 90.65 227.14 90.75 227.24
  L 90.95 227.43
  Q 90.98 227.46 91.01 227.42
  Z"
/>
<path d="
  M 123.54 263.40
  C 120.47 271.32 117.98 278.83 114.23 285.94
  C 112.82 288.61 112.26 291.90 111.33 294.81
  Q 111.08 295.60 110.52 296.17
  A 0.60 0.60 0.0 0 1 109.53 295.98
  Q 107.69 291.39 106.85 286.23
  C 105.43 277.60 107.22 267.55 109.56 259.25
  C 110.18 257.05 109.71 254.84 108.56 252.89
  Q 104.19 245.46 100.50 237.20
  Q 100.26 236.68 100.84 236.66
  Q 103.77 236.61 106.04 234.72
  A 1.95 1.94 -55.9 0 1 107.87 234.36
  C 122.21 238.89 129.40 248.24 123.54 263.40
  Z"
/>
<path d="
  M 281.19 247.25
  Q 281.01 251.01 281.04 254.85
  A 1.05 1.04 -1.1 0 1 280.02 255.90
  Q 276.26 256.01 273.17 257.83
  Q 272.66 258.13 272.58 257.55
  C 271.68 251.02 271.09 242.50 277.73 238.97
  C 287.19 233.95 288.04 251.72 287.65 257.06
  A 0.26 0.25 -77.1 0 1 287.31 257.28
  L 282.49 255.41
  A 0.57 0.56 -81.3 0 1 282.13 254.91
  Q 281.96 250.92 281.41 247.24
  Q 281.24 246.09 281.19 247.25
  Z"
/>
<path d="
  M 172.95 258.66
  C 174.30 256.58 175.40 254.46 176.17 252.14
  A 1.07 1.06 -64.8 0 1 177.74 251.57
  Q 181.34 253.83 184.04 257.12
  A 0.67 0.67 0.0 0 1 183.81 258.15
  Q 179.42 260.20 173.34 259.48
  A 0.54 0.54 0.0 0 1 172.95 258.66
  Z"
/>
<path d="
  M 280.32 270.86
  Q 276.74 271.20 272.97 272.65
  Q 272.45 272.85 272.46 272.30
  L 272.62 263.41
  Q 272.68 260.35 275.56 259.35
  L 278.18 258.44
  Q 281.00 257.46 281.01 260.45
  L 281.05 270.06
  A 0.81 0.80 -2.8 0 1 280.32 270.86
  Z"
/>
<path d="
  M 283.11 270.74
  L 282.40 259.32
  A 0.48 0.48 0.0 0 1 283.10 258.86
  L 286.86 260.77
  A 0.48 0.48 0.0 0 1 287.13 261.17
  L 287.75 272.18
  A 0.48 0.48 0.0 0 1 287.09 272.65
  L 283.41 271.15
  A 0.48 0.48 0.0 0 1 283.11 270.74
  Z"
/>
<path d="
  M 284.56 348.20
  Q 284.66 348.05 284.66 347.88
  Q 285.15 311.33 283.28 275.34
  Q 283.21 273.82 284.48 274.65
  Q 285.92 275.58 286.96 276.84
  A 5.79 5.75 27.2 0 1 288.27 280.89
  Q 287.88 286.76 287.84 291.39
  Q 287.53 320.97 288.85 352.88
  Q 289.68 373.30 284.78 393.98
  Q 284.72 394.25 284.55 394.47
  Q 284.38 394.69 284.11 394.66
  Q 283.75 394.62 283.74 394.26
  Q 283.48 384.05 280.58 375.57
  C 278.38 369.17 273.42 365.08 273.70 357.76
  Q 274.10 347.17 273.93 338.47
  Q 273.47 313.90 272.67 291.77
  Q 272.48 286.48 271.90 279.56
  Q 271.65 276.61 274.38 275.45
  L 278.37 273.77
  Q 281.11 272.61 281.16 275.59
  Q 281.64 303.39 283.12 332.75
  Q 283.46 339.58 284.32 348.14
  Q 284.35 348.52 284.56 348.20
  Z"
/>
</g>
</svg>
